<?xml version="1.0" encoding="iso-8859-1"?>
<!-- Generator: Adobe Illustrator 17.1.0, SVG Export Plug-In . SVG Version: 6.00 Build 0)  -->
<!DOCTYPE svg PUBLIC "-//W3C//DTD SVG 1.1//EN" "http://www.w3.org/Graphics/SVG/1.1/DTD/svg11.dtd">
<svg version="1.1" id="Capa_1" xmlns="http://www.w3.org/2000/svg" xmlns:xlink="http://www.w3.org/1999/xlink" x="0px" y="0px"
	 viewBox="0 0 185 185" style="enable-background:new 0 0 185 185;" xml:space="preserve">
<path style="fill:#000002;" d="M138.955,153.149c-1.381,0-2.5-1.119-2.5-2.5v-7.5H48.545v7.5c0,1.381-1.119,2.5-2.5,2.5
	s-2.5-1.119-2.5-2.5v-7.646c-20.184-1.632-36.052-16.824-36.052-35.263V77.35H2.5c-1.381,0-2.5-1.119-2.5-2.5v-8.549
	c0-1.381,1.119-2.5,2.5-2.5h4.994V47.156c-0.034-0.851-0.134-7.087,3.91-11.37c2.464-2.611,5.864-3.935,10.104-3.935
	c4.267,0,7.721,1.317,10.268,3.916c4.315,4.402,4.237,10.861,4.231,11.134c-0.027,1.363-1.141,2.45-2.499,2.45
	c-0.017,0-0.034,0-0.051-0.001c-1.378-0.027-2.473-1.164-2.45-2.541c0-0.125-0.005-4.712-2.826-7.565
	c-1.57-1.588-3.815-2.393-6.675-2.393c-2.85,0-4.965,0.774-6.469,2.366c-2.747,2.91-2.552,7.691-2.55,7.738
	c0.003,0.049,0.004,0.097,0.004,0.145v5.472c1.17-0.6,2.496-0.938,3.898-0.938c4.733,0,8.583,3.851,8.583,8.583
	c0,1.278-0.281,2.492-0.784,3.584H182.5c1.381,0,2.5,1.119,2.5,2.5v8.549c0,1.381-1.119,2.5-2.5,2.5h-4.994v30.391
	c0,18.438-15.868,33.631-36.052,35.263v7.646C141.455,152.03,140.335,153.149,138.955,153.149z M48.545,138.149h87.909v-7.5
	c0-1.381,1.119-2.5,2.5-2.5s2.5,1.119,2.5,2.5v7.337c17.423-1.588,31.052-14.546,31.052-30.245V77.35H12.494v30.391
	c0,15.699,13.629,28.657,31.052,30.245v-7.337c0-1.381,1.119-2.5,2.5-2.5s2.5,1.119,2.5,2.5V138.149z M5,72.35h175v-3.549H5V72.35z
	 M16.392,56.634c-1.976,0-3.583,1.607-3.583,3.583c0,1.977,1.607,3.584,3.583,3.584c1.976,0,3.583-1.607,3.583-3.584
	C19.975,58.242,18.368,56.634,16.392,56.634z"/>
<g>
</g>
<g>
</g>
<g>
</g>
<g>
</g>
<g>
</g>
<g>
</g>
<g>
</g>
<g>
</g>
<g>
</g>
<g>
</g>
<g>
</g>
<g>
</g>
<g>
</g>
<g>
</g>
<g>
</g>
</svg>
