<?xml version="1.0" encoding="iso-8859-1"?>
<!-- Generator: Adobe Illustrator 18.1.1, SVG Export Plug-In . SVG Version: 6.00 Build 0)  -->
<svg version="1.1" id="Capa_1" xmlns="http://www.w3.org/2000/svg" xmlns:xlink="http://www.w3.org/1999/xlink" x="0px" y="0px"
	 viewBox="0 0 33.419 33.419" style="enable-background:new 0 0 33.419 33.419;" xml:space="preserve">
<g>
	<path d="M3.176,12.869l-2.636,2.25l3.461-0.137C3.809,14.662,3.64,14.32,3.5,13.961C3.359,13.601,3.251,13.238,3.176,12.869z"/>
	<path d="M15.142,9.402c0.043,0.107,0.074,0.215,0.109,0.32c0.164-0.484,0.375-0.949,0.625-1.389L14.64,8.382
		C14.833,8.703,15.001,9.043,15.142,9.402z"/>
	<path d="M14.048,7.582l1.156-3.266l-2.927,1.85c0.327,0.18,0.642,0.391,0.945,0.631C13.524,7.039,13.8,7.302,14.048,7.582z"/>
	<path d="M11.364,5.765l-0.631-3.404l-1.61,3.066c0.375-0.008,0.753,0.016,1.134,0.074C10.639,5.56,11.009,5.648,11.364,5.765z"/>
	<path d="M7.041,5.861C7.4,5.72,7.766,5.613,8.132,5.537l-2.25-2.633L6.02,6.363C6.34,6.172,6.682,6,7.041,5.861z"/>
	<path d="M4.436,7.781c0.242-0.303,0.503-0.578,0.783-0.826L1.954,5.797l1.85,2.93C3.984,8.398,4.195,8.082,4.436,7.781z"/>
	<path d="M3.14,10.746c0.057-0.383,0.148-0.752,0.264-1.105L0,10.269l3.066,1.612C3.058,11.507,3.082,11.127,3.14,10.746z"/>
	<path d="M7.377,15.019c0.795,0,0.759,0.186,0.759,0c0-2.438,1.978-4.414,4.418-4.414c0.611,0,1.189,0.129,1.718,0.354
		c-0.309-2.125-1.97-3.887-4.204-4.225c-2.732-0.412-5.282,1.467-5.696,4.199c-0.252,1.664,0.349,3.256,1.475,4.346
		C6.327,15.113,6.841,15.019,7.377,15.019z"/>
	<path d="M28.411,13.164c-0.102-3.6-3.049-6.488-6.674-6.488c-3.424,0-6.244,2.574-6.635,5.893c-0.582-0.365-1.27-0.576-2.004-0.576
		c-2.088,0-3.78,1.689-3.78,3.775c0,0.158,0.029,0-0.649,0c-2.24,0-4.058,1.818-4.058,4.057c0,2.043,1.509,3.732,3.472,4.016
		c0.152,0.029,0.311,0.043,0.475,0.043h19.144c0.068,0,0.09-0.006,0.092-0.014c0.088,0.004,0.17,0.014,0.256,0.014
		c2.965,0,5.369-2.404,5.369-5.369C33.419,15.67,31.208,13.351,28.411,13.164z"/>
	<path d="M22.763,25.841c-0.057-0.15-0.109-0.314-0.158-0.494c-0.047,0.174-0.1,0.332-0.152,0.479
		c-0.016,0.045-0.031,0.084-0.049,0.127c-0.039,0.102-0.078,0.197-0.119,0.289c-0.02,0.045-0.041,0.088-0.061,0.131
		c-0.041,0.084-0.084,0.172-0.127,0.254c-0.02,0.037-0.039,0.076-0.061,0.111c-0.053,0.098-0.107,0.191-0.162,0.289
		c-0.211,0.361-0.441,0.74-0.697,1.258c-0.582,1.189,0.283,2.383,1.428,2.383s2.01-1.193,1.426-2.383
		C23.515,27.238,23.091,26.754,22.763,25.841z"/>
	<path d="M17.335,25.527c-0.062-0.176-0.125-0.361-0.182-0.57c-0.055,0.199-0.113,0.377-0.174,0.547
		c-0.02,0.057-0.041,0.105-0.062,0.158c-0.041,0.109-0.084,0.219-0.129,0.316c-0.023,0.057-0.051,0.111-0.078,0.164
		c-0.043,0.092-0.088,0.184-0.133,0.271c-0.029,0.051-0.055,0.102-0.082,0.152c-0.057,0.1-0.111,0.199-0.17,0.301
		c-0.242,0.418-0.512,0.857-0.807,1.459c-0.67,1.363,0.32,2.732,1.635,2.732c1.312,0,2.303-1.369,1.635-2.732
		C18.2,27.125,17.712,26.572,17.335,25.527z"/>
	<path d="M12.728,24.068c-0.061,0.215-0.126,0.393-0.196,0.561c-0.012,0.023-0.021,0.053-0.032,0.08
		c-0.069,0.154-0.143,0.297-0.22,0.438c-0.019,0.031-0.034,0.062-0.053,0.092c-0.166,0.291-0.351,0.586-0.557,1.004
		c-0.432,0.881,0.209,1.766,1.057,1.766c0.848,0,1.486-0.885,1.057-1.766C13.339,25.336,12.983,25.004,12.728,24.068z"/>
	<g>
	</g>
	<g>
	</g>
	<g>
	</g>
	<g>
	</g>
	<g>
	</g>
	<g>
	</g>
	<g>
	</g>
	<g>
	</g>
	<g>
	</g>
	<g>
	</g>
	<g>
	</g>
	<g>
	</g>
	<g>
	</g>
	<g>
	</g>
	<g>
	</g>
</g>
<g>
</g>
<g>
</g>
<g>
</g>
<g>
</g>
<g>
</g>
<g>
</g>
<g>
</g>
<g>
</g>
<g>
</g>
<g>
</g>
<g>
</g>
<g>
</g>
<g>
</g>
<g>
</g>
<g>
</g>
</svg>
