<?xml version="1.0" encoding="iso-8859-1"?>
<!-- Generator: Adobe Illustrator 17.1.0, SVG Export Plug-In . SVG Version: 6.00 Build 0)  -->
<!DOCTYPE svg PUBLIC "-//W3C//DTD SVG 1.1//EN" "http://www.w3.org/Graphics/SVG/1.1/DTD/svg11.dtd">
<svg version="1.1" id="Capa_1" xmlns="http://www.w3.org/2000/svg" xmlns:xlink="http://www.w3.org/1999/xlink" x="0px" y="0px"
	 viewBox="0 0 412.295 412.295" style="enable-background:new 0 0 412.295 412.295;" xml:space="preserve">
<g>
	<path d="M307.836,97.02C293.933,74.26,246.108,0,214.425,0c-6.917,0-12.838,3.265-16.673,9.192
		c-12.997,20.085-32.308,42.406-52.754,66.037c-46.691,53.965-99.611,115.13-99.611,176.305
		c0,88.644,72.117,160.761,160.761,160.761s160.761-72.117,160.761-160.761C366.908,197.892,321.694,119.706,307.836,97.02z
		 M206.147,392.295c-77.616,0-140.761-63.145-140.761-140.761c0-53.724,50.331-111.896,94.736-163.219
		c20.914-24.172,40.668-47.004,54.42-68.257c0.013-0.019,0.024-0.037,0.036-0.054c3.41,0.152,13.381,5.282,30.024,23.733
		c14.483,16.058,30.879,38.683,46.166,63.708c34.628,56.688,56.14,111.899,56.14,144.088
		C346.908,329.15,283.763,392.295,206.147,392.295z"/>
	<path d="M274.414,312.717c-18.91,15.374-42.774,23.84-67.198,23.84c-23.371,0-45.554-7.418-64.151-21.454
		c-4.409-3.327-10.679-2.451-14.006,1.958c-3.327,4.409-2.45,10.679,1.958,14.006c22.096,16.676,48.446,25.49,76.199,25.49
		c29.004,0,57.35-10.058,79.814-28.322c4.286-3.484,4.935-9.782,1.451-14.067S278.699,309.233,274.414,312.717z"/>
</g>
<g>
</g>
<g>
</g>
<g>
</g>
<g>
</g>
<g>
</g>
<g>
</g>
<g>
</g>
<g>
</g>
<g>
</g>
<g>
</g>
<g>
</g>
<g>
</g>
<g>
</g>
<g>
</g>
<g>
</g>
</svg>
