<?xml version="1.0" encoding="iso-8859-1"?>
<!-- Generator: Adobe Illustrator 16.0.0, SVG Export Plug-In . SVG Version: 6.00 Build 0)  -->
<!DOCTYPE svg PUBLIC "-//W3C//DTD SVG 1.1//EN" "http://www.w3.org/Graphics/SVG/1.1/DTD/svg11.dtd">
<svg version="1.1" id="Capa_1" xmlns="http://www.w3.org/2000/svg" xmlns:xlink="http://www.w3.org/1999/xlink" x="0px" y="0px"
	 width="79.536px" height="79.536px" viewBox="0 0 79.536 79.536" style="enable-background:new 0 0 79.536 79.536;"
	 xml:space="preserve">
<g>
	<path style="fill:#010002;" d="M30.549,64.551c0,4.453-3.617,8.067-8.076,8.067c-4.461,0-8.07-3.614-8.07-8.067
		c0-3.211,1.893-5.966,4.611-7.271V23.987h6.92v33.288C28.651,58.585,30.549,61.329,30.549,64.551z M42.075,25.339h29.983v-4.616
		H42.075V25.339z M59.367,38.023V8.044h-4.608v29.979H59.367z M37.456,64.551c0,8.254-6.716,14.985-14.988,14.985
		c-8.262,0-14.991-6.731-14.991-14.985c0-5.08,2.636-9.849,6.915-12.599l0.005-43.908C14.419,3.606,18.022,0,22.468,0
		c4.438,0,8.06,3.606,8.075,8.044c0,0.016,0,0.026,0,0.031v43.872C34.815,54.702,37.456,59.471,37.456,64.551z M35.157,64.551
		c0-4.489-2.434-8.689-6.349-10.957l-0.572-0.326V8.07c0-3.182-2.581-5.764-5.763-5.764c-3.187,0-5.768,2.582-5.768,5.764l0,0
		v45.187l-0.575,0.326c-3.907,2.278-6.34,6.473-6.34,10.957c0,6.99,5.693,12.687,12.689,12.687
		C29.461,77.227,35.157,71.541,35.157,64.551z"/>
</g>
<g>
</g>
<g>
</g>
<g>
</g>
<g>
</g>
<g>
</g>
<g>
</g>
<g>
</g>
<g>
</g>
<g>
</g>
<g>
</g>
<g>
</g>
<g>
</g>
<g>
</g>
<g>
</g>
<g>
</g>
</svg>
