<?xml version="1.0" encoding="iso-8859-1"?>
<!-- Generator: Adobe Illustrator 17.1.0, SVG Export Plug-In . SVG Version: 6.00 Build 0)  -->
<!DOCTYPE svg PUBLIC "-//W3C//DTD SVG 1.1//EN" "http://www.w3.org/Graphics/SVG/1.1/DTD/svg11.dtd">
<svg version="1.1" id="Capa_1" xmlns="http://www.w3.org/2000/svg" xmlns:xlink="http://www.w3.org/1999/xlink" x="0px" y="0px"
	 viewBox="0 0 131.342 131.342" style="enable-background:new 0 0 131.342 131.342;" xml:space="preserve">
<g>
	<path d="M65.462,61.006c5.975,0,10.836-4.861,10.836-10.836s-4.861-10.836-10.836-10.836c-5.975,0-10.835,4.861-10.835,10.836
		S59.487,61.006,65.462,61.006z"/>
	<path d="M87.881,58.245l-3.929-18.162c-0.33-1.521-1.81-2.713-3.415-2.713h0l-1.506,0.022c-0.821,0.013-1.573,0.365-2.063,0.968
		c-0.489,0.602-0.681,1.41-0.525,2.215l2.848,14.775c0.148,0.771-0.198,2-0.726,2.58l-5.117,5.618H57.893l-5.117-5.618
		c-0.528-0.58-0.874-1.81-0.726-2.58l2.848-14.776c0.155-0.806-0.037-1.613-0.526-2.215c-0.49-0.603-1.241-0.955-2.062-0.967
		l-1.55-0.022c-1.561,0-3.041,1.192-3.37,2.714l-3.929,18.161c-0.302,1.396,0.184,3.256,1.131,4.327l9.454,10.683v23.418v0.503
		v29.166c0,2.757,2.243,5,5,5h0.352c2.757,0,5-2.243,5-5v-26.166h2.127v26.166c0,2.757,2.243,5,5,5h0.352c2.757,0,5-2.243,5-5
		V97.176v-0.503V73.708c0.033-0.034,0.071-0.061,0.104-0.097l9.769-11.04C87.696,61.501,88.182,59.642,87.881,58.245z"/>
	<path d="M52.377,23.72h26.167c2.748,0,3.606-1.146,3.873-1.83s0.412-2.108-1.609-3.969L70.553,8.48
		c-0.278-0.256-0.578-0.481-0.891-0.689V3c0-1.654-1.346-3-3-3H64.26c-1.654,0-3,1.346-3,3v4.791
		c-0.312,0.208-0.613,0.433-0.89,0.689l-10.255,9.44c-2.021,1.861-1.876,3.286-1.609,3.969S49.63,23.72,52.377,23.72z"/>
	<path d="M57.231,28.915v-2.541c0-0.552-0.448-1-1-1s-1,0.448-1,1v2.541c0,0.552,0.448,1,1,1S57.231,29.467,57.231,28.915z"/>
	<path d="M66.461,28.915v-2.541c0-0.552-0.448-1-1-1s-1,0.448-1,1v2.541c0,0.552,0.448,1,1,1S66.461,29.467,66.461,28.915z"/>
	<path d="M75.692,28.915v-2.541c0-0.552-0.448-1-1-1s-1,0.448-1,1v2.541c0,0.552,0.448,1,1,1S75.692,29.467,75.692,28.915z"/>
	<path d="M50.951,29.985v2.541c0,0.552,0.448,1,1,1s1-0.448,1-1v-2.541c0-0.552-0.448-1-1-1S50.951,29.433,50.951,29.985z"/>
	<path d="M77.972,29.985v2.541c0,0.552,0.448,1,1,1s1-0.448,1-1v-2.541c0-0.552-0.448-1-1-1S77.972,29.433,77.972,29.985z"/>
	<path d="M61.958,32.526v-2.541c0-0.552-0.448-1-1-1s-1,0.448-1,1v2.541c0,0.552,0.448,1,1,1S61.958,33.079,61.958,32.526z"/>
	<path d="M70.965,32.526v-2.541c0-0.552-0.448-1-1-1s-1,0.448-1,1v2.541c0,0.552,0.448,1,1,1S70.965,33.079,70.965,32.526z"/>
</g>
<g>
</g>
<g>
</g>
<g>
</g>
<g>
</g>
<g>
</g>
<g>
</g>
<g>
</g>
<g>
</g>
<g>
</g>
<g>
</g>
<g>
</g>
<g>
</g>
<g>
</g>
<g>
</g>
<g>
</g>
</svg>
