<svg width="198.779" height="198.779" xmlns="http://www.w3.org/2000/svg">

 <g>
  <title>background</title>
  <rect fill="none" id="canvas_background" height="402" width="582" y="-1" x="-1"/>
 </g>
 <g>
  <title>Layer 1</title>
  <path stroke="null" id="svg_1" d="m166.344965,110.142705l-86.903445,0c-12.035791,0 -17.199546,-13.673067 -7.632078,-20.208715l43.451723,-29.682424c0.926526,-0.633444 1.929961,-1.12902 2.974113,-1.501634c-1.617801,-21.334009 -19.158461,-38.191994 -40.502945,-38.191994c-22.408541,0 -40.637761,18.573872 -40.637761,41.405789l0,129.790739c0,2.572899 -2.024966,4.657674 -4.524053,4.657674s-4.524053,-2.084775 -4.524053,-4.657674l0,-129.790739c0,-27.967468 22.288201,-50.721137 49.685868,-50.721137c26.30918,0 47.896153,20.987478 49.568243,47.42164c1.134633,0.380066 2.224025,0.902657 3.224745,1.586404l43.451723,29.682424c9.566563,6.535648 4.402809,20.209647 -7.632078,20.209647zm-42.248324,36.058779c-0.534743,-0.953892 -1.872053,-0.953892 -2.406796,0l-5.359194,9.555684c-2.916205,5.200759 0.729277,11.70194 6.561687,11.70194l0,0c5.833314,0 9.478797,-6.501181 6.561687,-11.70194l-5.357384,-9.555684zm-26.554383,-13.521227c-0.534743,-0.953892 -1.872053,-0.953892 -2.406796,0l-5.359194,9.555684c-2.916205,5.200759 0.729277,11.70194 6.561687,11.70194s9.478797,-6.501181 6.562592,-11.70194l-5.358289,-9.555684zm53.107862,0c-0.534743,-0.953892 -1.872053,-0.953892 -2.405892,0l-5.359194,9.555684c-2.916205,5.200759 0.729277,11.70194 6.561687,11.70194c5.833314,0 9.478797,-6.501181 6.562592,-11.70194l-5.359194,-9.555684zm-65.979699,-10.988384l76.445644,0c3.533286,0 6.397011,-2.948308 6.397011,-6.585951l-89.239666,0c0,3.637643 2.863726,6.585951 6.397011,6.585951z"/>
  <g id="svg_2"/>
  <g id="svg_3"/>
  <g id="svg_4"/>
  <g id="svg_5"/>
  <g id="svg_6"/>
  <g id="svg_7"/>
  <g id="svg_8"/>
  <g id="svg_9"/>
  <g id="svg_10"/>
  <g id="svg_11"/>
  <g id="svg_12"/>
  <g id="svg_13"/>
  <g id="svg_14"/>
  <g id="svg_15"/>
  <g id="svg_16"/>
  <path id="svg_18" d="m78.791293,179.001879c-3.464841,-1.049403 -5.948324,-4.383861 -5.383928,-7.228757c0.355891,-1.793923 7.864297,-12.684288 8.520019,-12.357638c0.214019,0.106614 2.118519,2.645615 4.232222,5.642225c3.38593,4.800254 3.843095,5.695353 3.843095,7.524539c0,3.707684 -3.681412,6.744698 -8.10171,6.683581c-1.289905,-0.017837 -2.68927,-0.136614 -3.109697,-0.263949l0,-0.000001zm3.471379,-1.864829c0.114688,-0.480013 -0.153217,-0.714114 -0.817241,-0.714114c-1.513378,0 -3.61268,-1.544943 -4.081696,-3.003848c-0.500313,-1.556256 -1.826864,-1.741341 -2.022803,-0.282228c-0.377503,2.811189 6.285759,6.661997 6.921739,4.00019l0.000001,0z" fill-opacity="null" stroke-opacity="null" stroke-width="null" stroke="null" fill="null"/>
  <path id="svg_19" d="m161.464038,179.593598c-3.46484,-1.0494 -5.94833,-4.38386 -5.38393,-7.22876c0.35589,-1.79392 7.8643,-12.68429 8.52002,-12.35764c0.21402,0.10662 2.11852,2.64562 4.23222,5.64223c3.38593,4.80025 3.8431,5.69535 3.8431,7.52454c0,3.70768 -3.68142,6.7447 -8.10172,6.68358c-1.2899,-0.01784 -2.68927,-0.13662 -3.10969,-0.26395l0,0zm3.47138,-1.86483c0.11468,-0.48001 -0.15322,-0.71411 -0.81724,-0.71411c-1.51338,0 -3.61268,-1.54495 -4.0817,-3.00385c-0.50031,-1.55626 -1.82686,-1.74134 -2.0228,-0.28223c-0.37751,2.81119 6.28576,6.662 6.92174,4.00019l0,0z" fill-opacity="null" stroke-opacity="null" stroke-width="null" stroke="null" fill="null"/>
  <path id="svg_20" d="m105.418464,191.427895c-3.46484,-1.0494 -5.94832,-4.38386 -5.38393,-7.22876c0.3559,-1.79392 7.8643,-12.68429 8.52002,-12.35764c0.21402,0.10662 2.11852,2.64562 4.23223,5.64223c3.38593,4.80025 3.84309,5.69535 3.84309,7.52454c0,3.70768 -3.68141,6.7447 -8.10171,6.68358c-1.28991,-0.01784 -2.68927,-0.13662 -3.1097,-0.26395l0,0zm3.47138,-1.86483c0.11469,-0.48001 -0.15322,-0.71411 -0.81724,-0.71411c-1.51338,0 -3.61268,-1.54495 -4.0817,-3.00385c-0.50031,-1.55626 -1.82686,-1.74134 -2.0228,-0.28223c-0.3775,2.81119 6.28576,6.662 6.92174,4.00019l0,0z" fill-opacity="null" stroke-opacity="null" stroke-width="null" stroke="null" fill="null"/>
  <path id="svg_21" d="m137.371074,190.244465c-3.46484,-1.0494 -5.94832,-4.38386 -5.38393,-7.22876c0.3559,-1.79392 7.8643,-12.68429 8.52002,-12.35764c0.21402,0.10662 2.11852,2.64562 4.23223,5.64223c3.38593,4.80025 3.84309,5.69535 3.84309,7.52454c0,3.70768 -3.68141,6.7447 -8.10171,6.68358c-1.28991,-0.01784 -2.68927,-0.13662 -3.1097,-0.26395l0,0zm3.47138,-1.86483c0.11469,-0.48001 -0.15322,-0.71411 -0.81724,-0.71411c-1.51338,0 -3.61268,-1.54495 -4.0817,-3.00385c-0.50031,-1.55626 -1.82686,-1.74134 -2.0228,-0.28223c-0.3775,2.81119 6.28576,6.662 6.92174,4.00019l0,0z" fill-opacity="null" stroke-opacity="null" stroke-width="null" stroke="null" fill="null"/>
 </g>
</svg>