<?xml version="1.0" encoding="iso-8859-1"?>
<!-- Generator: Adobe Illustrator 18.0.0, SVG Export Plug-In . SVG Version: 6.00 Build 0)  -->
<!DOCTYPE svg PUBLIC "-//W3C//DTD SVG 1.1//EN" "http://www.w3.org/Graphics/SVG/1.1/DTD/svg11.dtd">
<svg version="1.1" id="Capa_1" xmlns="http://www.w3.org/2000/svg" xmlns:xlink="http://www.w3.org/1999/xlink" x="0px" y="0px"
	 viewBox="0 0 430 430" style="enable-background:new 0 0 430 430;" xml:space="preserve">
<g>
	<circle cx="258.808" cy="213.274" r="57.156"/>
	<path d="M405.283,261.54c-4.912-11.156-17.934-16.214-29.089-11.304l-84.924,37.396c-8.739-7.463-20.068-11.98-32.462-11.98
		c-7.679,0-14.953,1.734-21.454,4.829l-79.233,28.754c-7.77,2.819-13.312,9.744-14.361,17.944
		c-1.048,8.199,2.574,16.296,9.383,20.98l56.124,38.604c3.307,24.416,24.22,43.237,49.541,43.237
		c27.622,0,50.013-22.39,50.013-50.012v-51.86l85.16-37.5C405.135,285.716,410.195,272.693,405.283,261.54z M247.603,389.435
		c-9.124,22.812-24.494,13.193-35.593-0.786l1.735,1.194c3.82,2.628,8.176,3.889,12.486,3.889c7.02,0,13.922-3.344,18.201-9.565
		c6.907-10.04,4.366-23.78-5.677-30.686l-12.859-8.846c0.95-0.355,1.847-0.758,2.653-1.243
		c14.477-7.796,18.598-27.181,41.146-18.723c16.544,6.203-3.401,26.472,1.722,36.716
		C286.309,391.164,283.685,396.654,247.603,389.435z"/>
	<path d="M72.921,115.617c-2.153-2.155-5.647-2.155-7.801-0.003c-2.155,2.155-2.156,5.648-0.003,7.803l14.403,14.405
		c1.079,1.079,2.49,1.617,3.902,1.617c1.411,0,2.824-0.538,3.901-1.616c2.155-2.152,2.156-5.647,0.001-7.801L72.921,115.617z"/>
	<path d="M148.945,199.444c2.155-2.155,2.155-5.648,0-7.801l-36.043-36.044c-2.153-2.155-5.646-2.155-7.801,0
		c-2.155,2.152-2.155,5.647,0,7.801l36.041,36.044c1.079,1.076,2.49,1.615,3.901,1.615
		C146.455,201.06,147.868,200.52,148.945,199.444z"/>
	<path d="M165.468,134.48c-2.155,2.155-2.155,5.647,0,7.803l14.404,14.406c1.077,1.076,2.49,1.615,3.901,1.615
		s2.823-0.539,3.901-1.615c2.154-2.156,2.154-5.647,0.001-7.803l-14.406-14.406C171.116,132.326,167.624,132.325,165.468,134.48z"/>
	<path d="M117.985,27.691c2.525-2.524,3.281-6.32,1.915-9.618c-1.368-3.298-4.586-5.45-8.156-5.45H70.765
		c-0.755,0-1.497,0.107-2.215,0.293L55.633,0H22.84v27.164h21.542l5.253,5.252c-0.083,0.485-0.133,0.977-0.133,1.477V74.87
		c0,3.57,2.15,6.788,5.448,8.154c1.092,0.454,2.239,0.671,3.376,0.671c2.296,0,4.555-0.895,6.243-2.585L117.985,27.691z"/>
	<path d="M105.101,74.109c-2.155,2.153-2.155,5.647,0,7.801l36.041,36.044c1.079,1.076,2.49,1.615,3.901,1.615
		c1.412,0,2.825-0.539,3.901-1.615c2.155-2.156,2.155-5.648,0-7.803l-36.043-36.042C110.748,71.955,107.254,71.955,105.101,74.109z"
		/>
	<path d="M161.01,56.333c1.077,1.077,2.488,1.616,3.9,1.616c1.413,0,2.824-0.539,3.901-1.615c2.155-2.155,2.155-5.647,0-7.803
		l-14.403-14.404c-2.153-2.152-5.646-2.152-7.801,0c-2.155,2.155-2.155,5.647,0,7.803L161.01,56.333z"/>
	<path d="M222.628,117.954c1.079,1.076,2.49,1.615,3.901,1.615c1.412,0,2.825-0.539,3.901-1.615c2.155-2.156,2.155-5.648,0-7.803
		l-36.043-36.042c-2.154-2.154-5.647-2.154-7.801,0c-2.155,2.153-2.155,5.647,0,7.801L222.628,117.954z"/>
</g>
<g>
</g>
<g>
</g>
<g>
</g>
<g>
</g>
<g>
</g>
<g>
</g>
<g>
</g>
<g>
</g>
<g>
</g>
<g>
</g>
<g>
</g>
<g>
</g>
<g>
</g>
<g>
</g>
<g>
</g>
</svg>
