<?xml version="1.0" encoding="iso-8859-1"?>
<!-- Generator: Adobe Illustrator 17.1.0, SVG Export Plug-In . SVG Version: 6.00 Build 0)  -->
<!DOCTYPE svg PUBLIC "-//W3C//DTD SVG 1.1//EN" "http://www.w3.org/Graphics/SVG/1.1/DTD/svg11.dtd">
<svg version="1.1" id="Capa_1" xmlns="http://www.w3.org/2000/svg" xmlns:xlink="http://www.w3.org/1999/xlink" x="0px" y="0px"
	 viewBox="0 0 198.779 198.779" style="enable-background:new 0 0 198.779 198.779;" xml:space="preserve">
<path d="M168.849,106.169H72.803c-13.302,0-19.009-14.678-8.435-21.694l48.023-31.864c1.024-0.68,2.133-1.212,3.287-1.612
	C113.89,28.097,94.504,10,70.914,10c-24.766,0-44.913,19.939-44.913,44.449v139.33c0,2.762-2.238,5-5,5s-5-2.238-5-5V54.449
	C16.001,24.426,40.634,0,70.914,0c29.077,0,52.935,22.53,54.783,50.907c1.254,0.408,2.458,0.969,3.564,1.703l48.023,31.864
	C187.857,91.49,182.15,106.169,168.849,106.169z M122.156,144.878c-0.591-1.024-2.069-1.024-2.66,0l-5.923,10.258
	c-3.223,5.583,0.806,12.562,7.252,12.562l0,0c6.447,0,10.476-6.979,7.252-12.562L122.156,144.878z M92.808,130.363
	c-0.591-1.024-2.069-1.024-2.66,0l-5.923,10.258c-3.223,5.583,0.806,12.562,7.252,12.562s10.476-6.979,7.253-12.562L92.808,130.363z
	 M151.503,130.363c-0.591-1.024-2.069-1.024-2.659,0l-5.923,10.258c-3.223,5.583,0.806,12.562,7.252,12.562
	c6.447,0,10.476-6.979,7.253-12.562L151.503,130.363z M78.582,118.567h84.488c3.905,0,7.07-3.165,7.07-7.07H71.512
	C71.512,115.402,74.677,118.567,78.582,118.567z"/>
<g>
</g>
<g>
</g>
<g>
</g>
<g>
</g>
<g>
</g>
<g>
</g>
<g>
</g>
<g>
</g>
<g>
</g>
<g>
</g>
<g>
</g>
<g>
</g>
<g>
</g>
<g>
</g>
<g>
</g>
</svg>
