<?xml version="1.0" encoding="iso-8859-1"?>
<!-- Generator: Adobe Illustrator 18.1.1, SVG Export Plug-In . SVG Version: 6.00 Build 0)  -->
<svg version="1.1" id="Capa_1" xmlns="http://www.w3.org/2000/svg" xmlns:xlink="http://www.w3.org/1999/xlink" x="0px" y="0px"
	 viewBox="0 0 50.773 50.773" style="enable-background:new 0 0 50.773 50.773;" xml:space="preserve">
<g>
	<g>
		<path style="fill:#010002;" d="M49.056,0H21.557c-0.613,0-1.109,0.496-1.109,1.108v6.747l-1.83,2.894
			C9.728,11.744,2.382,18.09,2.382,25.261c0,0.905,0.111,1.83,0.317,2.712c-1.198,0.712-2.087,1.738-2.087,2.883v1.389
			c0,1.398,1.461,2.494,3.328,2.494h35.218c1.865,0,3.328-1.097,3.328-2.496v-1.387c0-1.421-1.367-2.662-3-3.339
			c0.155-0.749,0.239-1.494,0.239-2.256c0-7.221-6.337-13.05-14.978-14.368l-2.083-3.112V2.218h26.389
			c0.612,0,1.108-0.496,1.108-1.109C50.164,0.496,49.669,0,49.056,0z M40.27,30.856l0.018,1.303c-0.055,0.093-0.438,0.36-1.127,0.36
			H3.941c-0.69,0-1.073-0.269-1.109-0.274v-1.389c0-0.646,1.086-1.214,2.145-1.486h33.146C39.183,29.642,40.27,30.209,40.27,30.856z
			 M37.845,25.261c0,0.442-0.028,0.872-0.091,1.3c-0.023,0.167-0.107,0.314-0.211,0.449c-0.203-0.021-0.404-0.037-0.602-0.037H6.159
			c-0.475,0-0.974,0.066-1.471,0.188c-0.175-0.162-0.308-0.369-0.338-0.604c-0.055-0.43-0.084-0.865-0.084-1.296
			c0-6.809,7.835-12.782,16.769-12.782C30.461,12.479,37.845,18.093,37.845,25.261z"/>
		<path style="fill:#010002;" d="M9.447,37.513l-0.401,0.419c-0.335,0.352-2.003,2.158-2.003,3.342c0,1.326,1.078,2.404,2.404,2.404
			s2.404-1.078,2.404-2.404c0-1.184-1.668-2.99-2.003-3.342L9.447,37.513z M9.447,42.569c-0.714,0-1.295-0.58-1.295-1.295
			c0-0.443,0.675-1.4,1.295-2.128c0.62,0.728,1.294,1.685,1.294,2.128C10.741,41.989,10.16,42.569,9.447,42.569z"/>
		<path style="fill:#010002;" d="M19.9,37.513l-0.401,0.419c-0.335,0.352-2.003,2.158-2.003,3.342c0,1.326,1.078,2.404,2.404,2.404
			s2.404-1.078,2.404-2.404c0-1.184-1.668-2.99-2.003-3.342L19.9,37.513z M19.9,42.569c-0.714,0-1.295-0.58-1.295-1.295
			c0-0.443,0.675-1.4,1.295-2.128c0.62,0.728,1.294,1.685,1.294,2.128C21.195,41.989,20.614,42.569,19.9,42.569z"/>
		<path style="fill:#010002;" d="M14.719,44.61l-0.401,0.418c-0.335,0.352-2.003,2.158-2.003,3.342c0,1.326,1.078,2.403,2.404,2.403
			s2.403-1.077,2.403-2.403c0-1.184-1.668-2.99-2.003-3.342L14.719,44.61z M14.719,49.664c-0.714,0-1.294-0.582-1.294-1.295
			c0-0.444,0.675-1.401,1.294-2.129c0.62,0.728,1.295,1.685,1.295,2.129C16.014,49.082,15.433,49.664,14.719,49.664z"/>
		<path style="fill:#010002;" d="M25.172,44.61l-0.401,0.418c-0.334,0.352-2.003,2.158-2.003,3.342c0,1.326,1.078,2.403,2.404,2.403
			s2.404-1.077,2.404-2.403c0-1.184-1.668-2.99-2.004-3.342L25.172,44.61z M25.172,49.664c-0.715,0-1.294-0.582-1.294-1.295
			c0-0.444,0.675-1.401,1.294-2.129c0.619,0.728,1.295,1.685,1.295,2.129C26.467,49.082,25.886,49.664,25.172,49.664z"/>
		<path style="fill:#010002;" d="M30.354,37.513l-0.4,0.419c-0.334,0.352-2.004,2.158-2.004,3.342c0,1.326,1.078,2.404,2.404,2.404
			c1.325,0,2.403-1.078,2.403-2.404c0-1.184-1.668-2.99-2.003-3.342L30.354,37.513z M30.354,42.569c-0.714,0-1.295-0.58-1.295-1.295
			c0-0.443,0.676-1.4,1.295-2.128c0.619,0.728,1.295,1.685,1.295,2.128C31.649,41.989,31.069,42.569,30.354,42.569z"/>
		<path style="fill:#010002;" d="M18.484,15.485c-8.538,2.61-10.972,8.552-11.072,8.804c-0.113,0.284,0.027,0.605,0.311,0.719
			c0.067,0.026,0.137,0.04,0.205,0.04c0.22,0,0.429-0.134,0.516-0.35c0.022-0.057,2.365-5.707,10.366-8.151
			c0.292-0.09,0.457-0.399,0.368-0.692C19.088,15.562,18.782,15.396,18.484,15.485z"/>
	</g>
</g>
<g>
</g>
<g>
</g>
<g>
</g>
<g>
</g>
<g>
</g>
<g>
</g>
<g>
</g>
<g>
</g>
<g>
</g>
<g>
</g>
<g>
</g>
<g>
</g>
<g>
</g>
<g>
</g>
<g>
</g>
</svg>
